

<svg version="1.0" xmlns="http://www.w3.org/2000/svg"
 width="512px" height="512px" viewBox="0 0 1024.000000 1024.000000"
 preserveAspectRatio="xMidYMid meet">
<g transform="translate(0.000000,1024.000000) scale(0.100000,-0.100000)"
fill="#000000" stroke="none">
<path d="M2225 9271 c-49 -23 -88 -65 -104 -110 -8 -25 -11 -1076 -11 -4038 0
-3591 2 -4007 15 -4041 21 -49 52 -81 100 -103 39 -18 140 -19 2890 -19 2744
0 2852 1 2890 19 50 22 91 69 105 119 7 25 10 1317 10 4038 l0 4000 -25 50
c-14 28 -40 59 -62 74 l-37 25 -2865 2 c-2773 3 -2867 2 -2906 -16z m5355
-4141 l0 -3570 -2465 0 -2465 0 0 3570 0 3570 2465 0 2465 0 0 -3570z"/>
<path d="M3210 7535 l0 -665 1918 2 1917 3 0 660 0 660 -1917 3 -1918 2 0
-665z"/>
<path d="M3210 5120 l0 -1250 830 0 830 0 0 1250 0 1250 -830 0 -830 0 0
-1250z"/>
<path d="M5360 5120 l0 -1250 845 0 845 0 0 1250 0 1250 -845 0 -845 0 0
-1250z"/>
<path d="M3217 3383 c-4 -3 -7 -305 -7 -670 l0 -663 1920 0 1920 0 -2 668 -3
667 -1911 3 c-1051 1 -1914 -1 -1917 -5z"/>
</g>
</svg>
