<?xml version="1.0" encoding="UTF-8"?>
<svg version="1.1" xmlns="http://www.w3.org/2000/svg" width="512" height="512">
<path d="M0 0 C3.74440058 2.41305815 6.12041703 4.47727811 7.41796875 8.85546875 C8.30539625 13.96037349 7.67054447 17.26719674 5.23095703 21.83862305 C2.63265024 25.45433913 -0.94344206 27.37679899 -4.75 29.5625 C-6.4703739 30.59842407 -8.1904169 31.63489784 -9.91015625 32.671875 C-10.78816895 33.19201172 -11.66618164 33.71214844 -12.57080078 34.24804688 C-16.65893039 36.69222812 -20.67002184 39.2544767 -24.6875 41.8125 C-26.27432899 42.81575389 -27.86156963 43.81835696 -29.44921875 44.8203125 C-30.23345215 45.31563477 -31.01768555 45.81095703 -31.82568359 46.32128906 C-34.16071356 47.79558749 -36.49629622 49.2690064 -38.83203125 50.7421875 C-39.60160156 51.22776123 -40.37117187 51.71333496 -41.1640625 52.21362305 C-42.71464093 53.19197192 -44.26542048 54.1700021 -45.81640625 55.14770508 C-50.27776014 57.96328841 -54.72746589 60.79616135 -59.16796875 63.64453125 C-60.16981201 64.28600098 -61.17165527 64.9274707 -62.20385742 65.58837891 C-64.16021088 66.84181542 -66.11486482 68.09790937 -68.06762695 69.35693359 C-69.39540161 70.20698975 -69.39540161 70.20698975 -70.75 71.07421875 C-71.92755859 71.83158325 -71.92755859 71.83158325 -73.12890625 72.60424805 C-79.03619769 76.07141898 -85.64986995 75.36252719 -92.06469727 73.7109375 C-93.79796635 73.21531709 -95.5276397 72.70698542 -97.25390625 72.1875 C-98.17340561 71.92114746 -99.09290497 71.65479492 -100.04026794 71.38037109 C-102.94692499 70.53562142 -105.84838222 69.67438098 -108.75 68.8125 C-110.7321004 68.2332738 -112.71451977 67.6551379 -114.69726562 67.078125 C-119.53112245 65.66882737 -124.36039049 64.24472977 -129.1875 62.8125 C-127.97973803 73.15549381 -126.5068422 83.42114672 -124.75368881 93.68546104 C-124.35529066 96.01889916 -123.96144468 98.35306936 -123.56863403 100.68745422 C-122.59517679 106.46757198 -121.61497867 112.24654073 -120.63366699 118.02532959 C-119.79736487 122.95094687 -118.96428458 127.87708601 -118.13580704 132.80402565 C-117.74902406 135.09620349 -117.35748177 137.38753553 -116.96578979 139.67887878 C-116.72938475 141.08234522 -116.49321665 142.48585161 -116.25732422 143.8894043 C-116.05017792 145.10911423 -115.84303162 146.32882416 -115.62960815 147.585495 C-115.24584567 150.38662732 -115.09628665 152.9923589 -115.1875 155.8125 C-114.54941406 156.02777344 -113.91132812 156.24304688 -113.25390625 156.46484375 C-108.94478007 158.35866354 -105.09974332 160.86546799 -101.125 163.375 C-91.7286157 169.25384119 -82.27465273 175.03025311 -72.78683472 180.75979614 C-45.41372851 197.29176403 -45.41372851 197.29176403 -41.33984375 205.96875 C-40.8294883 207.02358582 -40.8294883 207.02358582 -40.30882263 208.09973145 C-36.50977205 216.05078559 -33.11732201 224.17188757 -29.75 232.3125 C-28.71968403 234.78549554 -27.68732194 237.25763042 -26.65480042 239.72970581 C-25.93937501 241.44276815 -25.22456654 243.15608826 -24.51036072 244.86965942 C-21.85964209 251.22427089 -19.17639875 257.56455043 -16.4765625 263.8984375 C-16.09006027 264.80535339 -15.70355804 265.71226929 -15.30534363 266.64666748 C-13.79337905 270.19283676 -12.28057142 273.73864201 -10.76541138 277.28344727 C-9.721038 279.72740061 -8.67873844 282.1722299 -7.63671875 284.6171875 C-7.33114044 285.33023041 -7.02556213 286.04327332 -6.71072388 286.77792358 C0.889596 304.62920965 0.889596 304.62920965 -1.84375 314.08203125 C-4.57025461 320.2284188 -9.08306844 324.35936182 -15.125 327.1875 C-22.07696718 328.60626881 -27.92455976 328.19932605 -34.1875 324.8125 C-39.54882572 320.16601771 -42.61219827 315.26551547 -45.27734375 308.76171875 C-45.57427628 308.05085114 -45.8712088 307.33998352 -46.17713928 306.60757446 C-47.16485333 304.24046912 -48.14488966 301.87026264 -49.125 299.5 C-50.54817395 296.0796403 -51.97521297 292.6608978 -53.40234375 289.2421875 C-53.77886078 288.33880142 -54.15537781 287.43541534 -54.54330444 286.50465393 C-57.5511853 279.30026327 -60.6129359 272.11978786 -63.69140625 264.9453125 C-64.37854958 263.34158531 -64.37854958 263.34158531 -65.07957458 261.70545959 C-67.81098452 255.33082087 -67.81098452 255.33082087 -70.55197144 248.96029663 C-71.83110255 245.99248664 -73.10366197 243.02193615 -74.375 240.05078125 C-74.76172379 239.15871979 -75.14844757 238.26665833 -75.54689026 237.3475647 C-76.07088661 236.11844864 -76.07088661 236.11844864 -76.60546875 234.86450195 C-77.06602661 233.79399345 -77.06602661 233.79399345 -77.53588867 232.70185852 C-78.1875 230.8125 -78.1875 230.8125 -78.1875 227.8125 C-79.24324219 227.4244519 -79.24324219 227.4244519 -80.3203125 227.02856445 C-83.43276127 225.70847698 -86.1774463 224.11802184 -89.0625 222.35546875 C-89.62062881 222.01578568 -90.17875763 221.6761026 -90.75379944 221.3261261 C-92.56727994 220.22105233 -94.37737747 219.11056389 -96.1875 218 C-97.44049154 217.23537829 -98.69366697 216.47105784 -99.94702148 215.70703125 C-105.84601735 212.10680936 -111.72961918 208.48253387 -117.59765625 204.83203125 C-119.03915039 203.935448 -119.03915039 203.935448 -120.50976562 203.02075195 C-122.30092306 201.90415105 -124.09007734 200.7843287 -125.87695312 199.66088867 C-126.67166016 199.16435791 -127.46636719 198.66782715 -128.28515625 198.15625 C-128.97101807 197.72505859 -129.65687988 197.29386719 -130.36352539 196.84960938 C-132.3139059 195.66257515 -132.3139059 195.66257515 -135.1875 194.8125 C-134.41664063 195.76511719 -133.64578125 196.71773437 -132.8515625 197.69921875 C-131.83822405 198.96589181 -130.82522081 200.23283308 -129.8125 201.5 C-129.30460937 202.12583984 -128.79671875 202.75167969 -128.2734375 203.39648438 C-123.99643158 208.77087998 -121.89416762 212.9280233 -121.6875 219.9375 C-121.61015625 221.48824219 -121.61015625 221.48824219 -121.53125 223.0703125 C-123.14753751 232.2869996 -129.80201304 240.55918507 -134.8125 248.3125 C-136.05238538 250.24590008 -137.29196341 252.1794973 -138.53125 254.11328125 C-139.14613281 255.07057129 -139.76101562 256.02786133 -140.39453125 257.01416016 C-143.05334239 261.16384607 -145.68448684 265.33076572 -148.3125 269.5 C-149.29425975 271.05599658 -150.27603054 272.61198619 -151.2578125 274.16796875 C-151.74024414 274.93286621 -152.22267578 275.69776367 -152.71972656 276.48583984 C-154.20565516 278.84127889 -155.69249482 281.19614014 -157.1796875 283.55078125 C-157.67621826 284.33710938 -158.17274902 285.1234375 -158.68432617 285.93359375 C-159.6810259 287.51095969 -160.67857541 289.08778902 -161.67700195 290.6640625 C-164.2608136 294.74603642 -166.82585215 298.83822633 -169.36328125 302.94921875 C-169.88857422 303.79484375 -170.41386719 304.64046875 -170.95507812 305.51171875 C-171.9479869 307.11091696 -172.93544066 308.71352207 -173.91601562 310.3203125 C-178.53620359 317.73607259 -183.36371107 325.45948962 -192.1875 327.8125 C-199.31870765 328.65712579 -205.32400011 328.18767169 -211.1875 323.8125 C-216.55184112 318.87826195 -218.90888336 314.26734627 -219.5 306.9375 C-219.22283739 298.32421669 -214.31953324 291.46574435 -209.75 284.5 C-208.47883259 282.53276791 -207.20800474 280.56531637 -205.9375 278.59765625 C-205.30328125 277.62070801 -204.6690625 276.64375977 -204.015625 275.63720703 C-201.39627685 271.58995035 -198.81961294 267.51645296 -196.25 263.4375 C-195.77626953 262.68637939 -195.30253906 261.93525879 -194.81445312 261.16137695 C-193.27088996 258.71253346 -191.72911665 256.26256931 -190.1875 253.8125 C-189.56101563 252.81798828 -188.93453125 251.82347656 -188.2890625 250.79882812 C-186.27330905 247.59676064 -184.26122081 244.39241602 -182.25 241.1875 C-181.62295166 240.19186035 -180.99590332 239.1962207 -180.34985352 238.17041016 C-176.78240855 232.47536079 -173.37576811 226.72870296 -170.1875 220.8125 C-170.86554688 220.02488281 -171.54359375 219.23726562 -172.2421875 218.42578125 C-177.44285261 212.35158533 -182.51022247 206.2213773 -187.33203125 199.84008789 C-189.60983955 196.83379541 -191.93504524 193.8826942 -194.33984375 190.9765625 C-194.87552979 190.32478027 -195.41121582 189.67299805 -195.96313477 189.00146484 C-196.99313866 187.75275611 -198.03083707 186.51033459 -199.07788086 185.27587891 C-206.73759833 175.94864314 -208.29676974 165.88018421 -209.9375 154.25 C-210.15896802 152.74917314 -210.38161512 151.24851977 -210.60546875 149.74804688 C-211.14641688 146.10476382 -211.67138501 142.45939398 -212.1875 138.8125 C-208.3059003 139.3960396 -205.54906509 140.54364249 -202.1875 142.55078125 C-200.74745605 143.4020459 -200.74745605 143.4020459 -199.27832031 144.27050781 C-198.25834961 144.88249023 -197.23837891 145.49447266 -196.1875 146.125 C-194.03694827 147.39796348 -191.88589624 148.67008208 -189.734375 149.94140625 C-188.64705078 150.58609863 -187.55972656 151.23079102 -186.43945312 151.89501953 C-181.46413138 154.82866645 -176.45412963 157.70023212 -171.4375 160.5625 C-170.56351562 161.06305908 -169.68953125 161.56361816 -168.7890625 162.0793457 C-167.57089844 162.77483521 -167.57089844 162.77483521 -166.328125 163.484375 C-165.62204102 163.8875293 -164.91595703 164.29068359 -164.18847656 164.70605469 C-163.5281543 165.07118164 -162.86783203 165.43630859 -162.1875 165.8125 C-161.51944336 166.1827832 -160.85138672 166.55306641 -160.16308594 166.93457031 C-156.17757916 168.70568776 -152.10697782 168.39321159 -148.03125 167.16015625 C-143.72675592 165.28898625 -140.86697594 163.14123121 -138.8125 158.8671875 C-137.14362519 153.38076155 -137.43274994 148.69290586 -139.5546875 143.40625 C-142.63994788 138.36308829 -147.75905274 136.0678262 -152.8125 133.3125 C-154.97924291 132.0912811 -157.14590677 130.86992193 -159.3125 129.6484375 C-160.43914062 129.02163086 -161.56578125 128.39482422 -162.7265625 127.74902344 C-168.45842173 124.54183471 -174.13077236 121.23238882 -179.8125 117.9375 C-188.59114564 112.87304641 -197.37920343 107.8252215 -206.1875 102.8125 C-205.58554217 96.53583558 -204.59898741 90.51701588 -203.1875 84.375 C-203.00960937 83.57384766 -202.83171875 82.77269531 -202.6484375 81.94726562 C-201.32577285 76.0890457 -201.32577285 76.0890457 -200.1875 73.8125 C-201.1775 73.8125 -202.1675 73.8125 -203.1875 73.8125 C-203.33372803 74.57916992 -203.47995605 75.34583984 -203.63061523 76.13574219 C-204.29424124 79.61155249 -204.95960121 83.08702866 -205.625 86.5625 C-205.85509766 87.7690625 -206.08519531 88.975625 -206.32226562 90.21875 C-206.54462891 91.37890625 -206.76699219 92.5390625 -206.99609375 93.734375 C-207.30244751 95.33684082 -207.30244751 95.33684082 -207.61499023 96.97167969 C-208.07901364 99.27418559 -208.59100754 101.54151666 -209.1875 103.8125 C-208.47102295 104.08167236 -207.7545459 104.35084473 -207.01635742 104.62817383 C-204.16469207 105.82204874 -201.5966377 107.20705543 -198.92578125 108.76171875 C-197.90154053 109.3554126 -196.8772998 109.94910645 -195.82202148 110.56079102 C-194.17762085 111.52069946 -194.17762085 111.52069946 -192.5 112.5 C-190.76129923 113.51008829 -189.02259437 114.52016961 -187.28364563 115.52983093 C-186.08147678 116.2280524 -184.87956546 116.92671744 -183.67790222 117.62580872 C-179.46369173 120.07656452 -175.23882962 122.50808051 -171.0078125 124.9296875 C-169.84200194 125.59799498 -168.67622995 126.26636977 -167.51049805 126.93481445 C-165.3100411 128.19586813 -163.10844224 129.45493206 -160.90551758 130.71166992 C-141.96796993 141.5897882 -141.96796993 141.5897882 -140.1875 146.8125 C-139.52489762 151.86696691 -139.60738678 155.63078789 -141.875 160.25 C-144.71510266 163.39714079 -146.77134897 165.44164891 -151.07714844 166.10253906 C-157.9560367 166.42328397 -162.41553051 164.11938402 -168.25 160.6875 C-169.1997168 160.14907471 -170.14943359 159.61064941 -171.12792969 159.0559082 C-174.16020076 157.32874366 -177.17474498 155.57345264 -180.1875 153.8125 C-182.13908438 152.68318144 -184.09090549 151.55427186 -186.04296875 150.42578125 C-190.00929047 148.12538054 -193.96613532 145.80956669 -197.91796875 143.484375 C-202.3428648 140.88422918 -206.78383193 138.31461009 -211.23828125 135.765625 C-211.82553986 135.42908401 -212.41279846 135.09254303 -213.01785278 134.74580383 C-215.85892422 133.11777993 -218.70174646 131.49299144 -221.54785156 129.8737793 C-237.25815544 120.86882241 -237.25815544 120.86882241 -239.1875 115.8125 C-240.12898549 107.28922028 -238.54873506 99.10771 -236.703125 90.8203125 C-236.44625916 89.63073944 -236.18939331 88.44116638 -235.92474365 87.21554565 C-235.38273554 84.72177987 -234.83449352 82.22936147 -234.28027344 79.73828125 C-233.43605047 75.93096284 -232.61919413 72.1184604 -231.8046875 68.3046875 C-231.27246004 65.87203936 -230.7386605 63.43973453 -230.203125 61.0078125 C-229.96128479 59.873367 -229.71944458 58.73892151 -229.47027588 57.57009888 C-227.93275848 50.76536153 -226.53162094 45.58334307 -221 41 C-217.00649943 39.31385531 -213.54919026 38.075728 -209.1875 38.8125 C-206.97182222 40.54573181 -205.27038046 42.49399951 -203.4140625 44.60546875 C-196.27294312 51.68394673 -186.10877549 54.32714955 -176.375 55.125 C-165.10161573 54.72237913 -155.23102655 50.53562021 -147.05078125 42.7890625 C-143.66828476 39.08746256 -141.14717956 35.42351072 -139.1875 30.8125 C-132.33066185 31.34732903 -126.39184993 32.82379985 -119.88671875 35 C-117.92070556 35.62356998 -115.95388106 36.24458678 -113.98632812 36.86328125 C-110.92351979 37.83239694 -107.86851967 38.81468552 -104.82446289 39.84130859 C-93.34116382 44.11824844 -93.34116382 44.11824844 -81.4675293 43.86010742 C-78.39568163 42.08582717 -75.8691305 40.1275953 -73.1875 37.8125 C-71.43286841 36.67691314 -69.66063372 35.56802021 -67.87109375 34.48828125 C-66.12097621 33.36940494 -64.3723084 32.24825819 -62.625 31.125 C-60.70070074 29.89424992 -58.77621834 28.66378614 -56.8515625 27.43359375 C-55.90055664 26.82499512 -54.94955078 26.21639648 -53.96972656 25.58935547 C-49.05771394 22.45232249 -44.12798021 19.34346463 -39.19702148 16.23632812 C-35.08685017 13.64584374 -30.98262492 11.04658944 -26.88671875 8.43359375 C-25.58190552 7.60335693 -25.58190552 7.60335693 -24.25073242 6.75634766 C-22.57868358 5.69218628 -20.90819551 4.6255674 -19.23950195 3.55615234 C-18.49015381 3.08000488 -17.74080566 2.60385742 -16.96875 2.11328125 C-16.30939453 1.69216064 -15.65003906 1.27104004 -14.97070312 0.8371582 C-10.07151185 -1.97799867 -5.21423762 -1.94255911 0 0 Z " fill="#C32B42" transform="translate(239.1875,95.1875)"/>
<path d="M0 0 C0.73650787 0.00060425 1.47301575 0.0012085 2.23184204 0.00183105 C33.43901094 0.07077395 79.70997144 0.68450435 104.3054657 22.75126648 C108.82695216 27.33785447 110.35935716 30.51531653 110.35557556 36.95483398 C110.31944656 37.89786377 110.28331757 38.84089355 110.24609375 39.8125 C110.23618912 40.80000244 110.22628448 41.78750488 110.21607971 42.80493164 C110.17714586 45.93401739 110.08936485 49.05948947 110 52.1875 C109.96485893 54.31895946 109.93292485 56.45047436 109.90429688 58.58203125 C109.82745258 63.78522934 109.70681674 68.98575381 109.5625 74.1875 C106.2625 74.1875 102.9625 74.1875 99.5625 74.1875 C99.2325 69.2375 98.9025 64.2875 98.5625 59.1875 C97.325 59.909375 96.0875 60.63125 94.8125 61.375 C68.59035273 75.80734462 37.06194712 79.45813713 7.5625 79.1875 C7.5625 88.0975 7.5625 97.0075 7.5625 106.1875 C2.6125 106.1875 -2.3375 106.1875 -7.4375 106.1875 C-7.4375 97.2775 -7.4375 88.3675 -7.4375 79.1875 C-10.345625 79.2803125 -10.345625 79.2803125 -13.3125 79.375 C-42.2984926 79.63436761 -73.18868826 73.65592021 -98.4375 59.1875 C-98.4375 64.1375 -98.4375 69.0875 -98.4375 74.1875 C-102.0675 74.1875 -105.6975 74.1875 -109.4375 74.1875 C-109.53683715 68.35258882 -109.60918936 62.51817663 -109.65722656 56.68261719 C-109.67726497 54.70010801 -109.70450353 52.71765737 -109.73925781 50.73535156 C-109.78811954 47.87550359 -109.81054673 45.01644119 -109.828125 42.15625 C-109.84877014 41.27884155 -109.86941528 40.40143311 -109.89068604 39.49743652 C-109.8931069 32.76453733 -108.3073241 27.4742477 -103.82421875 22.33984375 C-75.0852681 1.7931457 -34.04360527 -0.05224602 0 0 Z M-30.4375 7.1875 C-30.4375 8.5075 -30.4375 9.8275 -30.4375 11.1875 C-20.8675 11.1875 -11.2975 11.1875 -1.4375 11.1875 C-1.4375 9.5375 -1.4375 7.8875 -1.4375 6.1875 C-15.96390697 6.04328403 -15.96390697 6.04328403 -30.4375 7.1875 Z M2.5625 6.1875 C2.5625 7.8375 2.5625 9.4875 2.5625 11.1875 C12.1325 11.1875 21.7025 11.1875 31.5625 11.1875 C31.2325 9.8675 30.9025 8.5475 30.5625 7.1875 C21.22263591 5.98235625 11.96042784 6.09536345 2.5625 6.1875 Z M35.5625 8.1875 C35.5625 9.1775 35.5625 10.1675 35.5625 11.1875 C40.5125 11.1875 45.4625 11.1875 50.5625 11.1875 C50.5625 10.8575 50.5625 10.5275 50.5625 10.1875 C48.8133503 9.84973316 47.06313855 9.51746329 45.3125 9.1875 C44.33796875 9.001875 43.3634375 8.81625 42.359375 8.625 C39.37565721 8.08446983 39.37565721 8.08446983 35.5625 8.1875 Z M-44.1875 9.1875 C-45.66476562 9.4659375 -45.66476562 9.4659375 -47.171875 9.75 C-47.91953125 9.894375 -48.6671875 10.03875 -49.4375 10.1875 C-49.4375 10.5175 -49.4375 10.8475 -49.4375 11.1875 C-44.4875 11.1875 -39.5375 11.1875 -34.4375 11.1875 C-34.4375 10.1975 -34.4375 9.2075 -34.4375 8.1875 C-37.91726503 8.1875 -40.79288361 8.5409064 -44.1875 9.1875 Z M-62.4375 13.1875 C-64.54290926 18.44963521 -64.54290926 18.44963521 -64.4375 21.1875 C-54.8675 21.1875 -45.2975 21.1875 -35.4375 21.1875 C-35.1075 18.5475 -34.7775 15.9075 -34.4375 13.1875 C-43.6775 13.1875 -52.9175 13.1875 -62.4375 13.1875 Z M-30.4375 13.1875 C-30.4375 15.8275 -30.4375 18.4675 -30.4375 21.1875 C-20.8675 21.1875 -11.2975 21.1875 -1.4375 21.1875 C-1.4375 18.5475 -1.4375 15.9075 -1.4375 13.1875 C-11.0075 13.1875 -20.5775 13.1875 -30.4375 13.1875 Z M2.5625 13.1875 C2.5625 15.8275 2.5625 18.4675 2.5625 21.1875 C12.1325 21.1875 21.7025 21.1875 31.5625 21.1875 C31.5625 18.5475 31.5625 15.9075 31.5625 13.1875 C21.9925 13.1875 12.4225 13.1875 2.5625 13.1875 Z M35.5625 13.1875 C35.5625 15.8275 35.5625 18.4675 35.5625 21.1875 C45.1325 21.1875 54.7025 21.1875 64.5625 21.1875 C64.5625 18.8775 64.5625 16.5675 64.5625 14.1875 C63.48141551 12.88088505 63.48141551 12.88088505 60.87866211 13.07397461 C59.12694702 13.08182983 59.12694702 13.08182983 57.33984375 13.08984375 C55.44975586 13.09467773 55.44975586 13.09467773 53.52148438 13.09960938 C52.18098891 13.10796597 50.84049412 13.11643093 49.5 13.125 C48.15560058 13.1300134 46.8111994 13.13457658 45.46679688 13.13867188 C42.16532059 13.15050512 38.86393197 13.16699029 35.5625 13.1875 Z M68.5625 15.1875 C68.8925 17.1675 69.2225 19.1475 69.5625 21.1875 C73.1925 21.1875 76.8225 21.1875 80.5625 21.1875 C77.45707624 18.85843218 75.77084534 17.71042087 72.3125 16.5 C71.075 16.066875 69.8375 15.63375 68.5625 15.1875 Z M-75.625 18.1875 C-76.34042969 18.55875 -77.05585938 18.93 -77.79296875 19.3125 C-78.60701172 19.745625 -78.60701172 19.745625 -79.4375 20.1875 C-79.4375 20.5175 -79.4375 20.8475 -79.4375 21.1875 C-75.8075 21.1875 -72.1775 21.1875 -68.4375 21.1875 C-68.4375 19.5375 -68.4375 17.8875 -68.4375 16.1875 C-71.63360552 16.1875 -72.85467626 16.73421542 -75.625 18.1875 Z M-88.4375 26.625 C-89.92514222 28.7434745 -89.92514222 28.7434745 -90.4375 31.1875 C-83.5075 31.1875 -76.5775 31.1875 -69.4375 31.1875 C-69.1075 28.5475 -68.7775 25.9075 -68.4375 23.1875 C-79.42240516 21.78544393 -79.42240516 21.78544393 -88.4375 26.625 Z M-64.4375 23.1875 C-64.7675 25.8275 -65.0975 28.4675 -65.4375 31.1875 C-55.5375 31.1875 -45.6375 31.1875 -35.4375 31.1875 C-35.4375 28.5475 -35.4375 25.9075 -35.4375 23.1875 C-45.0075 23.1875 -54.5775 23.1875 -64.4375 23.1875 Z M-31.4375 24.1875 C-31.4375 26.4975 -31.4375 28.8075 -31.4375 31.1875 C-21.5375 31.1875 -11.6375 31.1875 -1.4375 31.1875 C-1.4375 28.5475 -1.4375 25.9075 -1.4375 23.1875 C-5.5492256 23.16284254 -9.66092278 23.14466041 -13.77270508 23.13256836 C-15.17245228 23.1275292 -16.5721942 23.12069784 -17.97192383 23.11206055 C-19.97995777 23.0999768 -21.98802957 23.09480193 -23.99609375 23.08984375 C-25.20579834 23.08460693 -26.41550293 23.07937012 -27.66186523 23.07397461 C-30.34562017 22.86974715 -30.34562017 22.86974715 -31.4375 24.1875 Z M2.5625 23.1875 C2.5625 25.8275 2.5625 28.4675 2.5625 31.1875 C12.4625 31.1875 22.3625 31.1875 32.5625 31.1875 C32.2325 28.5475 31.9025 25.9075 31.5625 23.1875 C21.9925 23.1875 12.4225 23.1875 2.5625 23.1875 Z M36.5625 23.1875 C36.5625 25.8275 36.5625 28.4675 36.5625 31.1875 C46.4625 31.1875 56.3625 31.1875 66.5625 31.1875 C66.2325 28.5475 65.9025 25.9075 65.5625 23.1875 C55.9925 23.1875 46.4225 23.1875 36.5625 23.1875 Z M69.5625 23.1875 C69.8925 25.8275 70.2225 28.4675 70.5625 31.1875 C77.4925 31.1875 84.4225 31.1875 91.5625 31.1875 C89.11196002 26.55419976 89.11196002 26.55419976 85.5625 23.1875 C82.75122957 22.97035759 80.1741655 22.90465724 77.375 23 C76.25061523 23.02030273 76.25061523 23.02030273 75.10351562 23.04101562 C73.25620233 23.07631461 71.40925934 23.13012083 69.5625 23.1875 Z M-91.4375 33.1875 C-89.14933213 39.72326165 -89.14933213 39.72326165 -86.4375 42.1875 C-83.69264407 42.33257695 -81.05269457 42.37402423 -78.3125 42.3125 C-77.18134766 42.29896484 -77.18134766 42.29896484 -76.02734375 42.28515625 C-74.16392746 42.2615687 -72.30067407 42.22569719 -70.4375 42.1875 C-70.1075 39.2175 -69.7775 36.2475 -69.4375 33.1875 C-76.6975 33.1875 -83.9575 33.1875 -91.4375 33.1875 Z M-65.4375 33.1875 C-65.7675 36.1575 -66.0975 39.1275 -66.4375 42.1875 C-56.5375 42.1875 -46.6375 42.1875 -36.4375 42.1875 C-36.1075 39.2175 -35.7775 36.2475 -35.4375 33.1875 C-45.3375 33.1875 -55.2375 33.1875 -65.4375 33.1875 Z M-31.4375 33.1875 C-31.4375 36.1575 -31.4375 39.1275 -31.4375 42.1875 C-21.5375 42.1875 -11.6375 42.1875 -1.4375 42.1875 C-1.4375 39.2175 -1.4375 36.2475 -1.4375 33.1875 C-11.3375 33.1875 -21.2375 33.1875 -31.4375 33.1875 Z M2.5625 33.1875 C2.5625 36.1575 2.5625 39.1275 2.5625 42.1875 C12.4625 42.1875 22.3625 42.1875 32.5625 42.1875 C32.5625 39.2175 32.5625 36.2475 32.5625 33.1875 C22.6625 33.1875 12.7625 33.1875 2.5625 33.1875 Z M36.5625 33.1875 C36.8925 36.1575 37.2225 39.1275 37.5625 42.1875 C47.4625 42.1875 57.3625 42.1875 67.5625 42.1875 C67.2325 39.2175 66.9025 36.2475 66.5625 33.1875 C56.6625 33.1875 46.7625 33.1875 36.5625 33.1875 Z M70.5625 33.1875 C70.8925 36.1575 71.2225 39.1275 71.5625 42.1875 C74.1475867 42.32276616 76.72558752 42.42167653 79.3125 42.5 C80.04210937 42.54189453 80.77171875 42.58378906 81.5234375 42.62695312 C85.39906776 42.71503563 87.15591545 42.55430998 90.078125 39.91796875 C91.88091252 37.11976615 91.88091252 37.11976615 91.5625 33.1875 C84.6325 33.1875 77.7025 33.1875 70.5625 33.1875 Z M-83.4375 44.1875 C-77.9786719 48.50209707 -77.9786719 48.50209707 -71.4375 50.1875 C-71.4375 48.2075 -71.4375 46.2275 -71.4375 44.1875 C-75.3975 44.1875 -79.3575 44.1875 -83.4375 44.1875 Z M-66.4375 44.1875 C-66.7675 46.8275 -67.0975 49.4675 -67.4375 52.1875 C-64.56731559 53.62259221 -62.10206277 53.29908506 -58.8984375 53.28515625 C-57.59648437 53.28193359 -56.29453125 53.27871094 -54.953125 53.27539062 C-53.57291601 53.26703466 -52.19270768 53.25856971 -50.8125 53.25 C-49.42448074 53.24498501 -48.03645978 53.2404221 -46.6484375 53.23632812 C-43.24474868 53.22450976 -39.84114561 53.20803434 -36.4375 53.1875 C-36.4375 50.2175 -36.4375 47.2475 -36.4375 44.1875 C-46.3375 44.1875 -56.2375 44.1875 -66.4375 44.1875 Z M-32.4375 44.1875 C-32.4375 47.1575 -32.4375 50.1275 -32.4375 53.1875 C-22.2075 53.1875 -11.9775 53.1875 -1.4375 53.1875 C-1.4375 50.2175 -1.4375 47.2475 -1.4375 44.1875 C-11.6675 44.1875 -21.8975 44.1875 -32.4375 44.1875 Z M2.5625 44.1875 C2.5625 47.1575 2.5625 50.1275 2.5625 53.1875 C12.7925 53.1875 23.0225 53.1875 33.5625 53.1875 C33.2325 50.2175 32.9025 47.2475 32.5625 44.1875 C22.6625 44.1875 12.7625 44.1875 2.5625 44.1875 Z M37.5625 44.1875 C37.5625 47.1575 37.5625 50.1275 37.5625 53.1875 C41.65591499 53.21219575 45.74930121 53.23035793 49.84277344 53.24243164 C51.23568477 53.2474643 52.6285908 53.25429098 54.02148438 53.26293945 C56.02211246 53.27505152 58.02277888 53.28020412 60.0234375 53.28515625 C61.22790527 53.29039307 62.43237305 53.29562988 63.67333984 53.30102539 C66.5038677 53.38837891 66.5038677 53.38837891 68.5625 52.1875 C68.2325 49.5475 67.9025 46.9075 67.5625 44.1875 C57.6625 44.1875 47.7625 44.1875 37.5625 44.1875 Z M71.5625 44.1875 C71.8925 46.1675 72.2225 48.1475 72.5625 50.1875 C76.60506383 48.96532954 80.05538959 47.55995704 83.5625 45.1875 C83.5625 44.8575 83.5625 44.5275 83.5625 44.1875 C79.6025 44.1875 75.6425 44.1875 71.5625 44.1875 Z M-54.4375 55.1875 C-54.4375 55.5175 -54.4375 55.8475 -54.4375 56.1875 C-46.0225 57.6725 -46.0225 57.6725 -37.4375 59.1875 C-37.4375 57.8675 -37.4375 56.5475 -37.4375 55.1875 C-43.0475 55.1875 -48.6575 55.1875 -54.4375 55.1875 Z M-32.4375 55.1875 C-32.4375 56.5075 -32.4375 57.8275 -32.4375 59.1875 C-23.99092947 63.41078526 -10.72009328 61.27940686 -1.4375 61.1875 C-1.4375 59.2075 -1.4375 57.2275 -1.4375 55.1875 C-11.6675 55.1875 -21.8975 55.1875 -32.4375 55.1875 Z M2.5625 55.1875 C2.5625 57.1675 2.5625 59.1475 2.5625 61.1875 C18.48051137 62.34509606 18.48051137 62.34509606 33.5625 59.1875 C33.5625 57.8675 33.5625 56.5475 33.5625 55.1875 C23.3325 55.1875 13.1025 55.1875 2.5625 55.1875 Z M37.5625 55.1875 C38.2225 56.5075 38.8825 57.8275 39.5625 59.1875 C44.8425 58.1975 50.1225 57.2075 55.5625 56.1875 C55.5625 55.8575 55.5625 55.5275 55.5625 55.1875 C49.6225 55.1875 43.6825 55.1875 37.5625 55.1875 Z " fill="#C32B42" transform="translate(402.4375,335.8125)"/>
<path d="M0 0 C9.69317051 7.79753031 14.09580009 16.25884132 15.55859375 28.59375 C16.11651134 39.06893748 13.38541572 48.45277621 6.7734375 56.6328125 C-1.31280532 65.29052124 -11.23229612 70.05287418 -23.0625 70.5 C-33.6937048 70.2232305 -43.29625357 66.47971905 -51.25390625 59.40625 C-59.58574094 50.62453223 -62.60593391 40.15480028 -62.4609375 28.30859375 C-61.81436221 18.74167415 -57.77353976 9.71885244 -50.98828125 2.921875 C-36.08723184 -9.71009781 -16.2166678 -11.46509217 0 0 Z " fill="#C32B42" transform="translate(86.25,77.8125)"/>
<path d="M0 0 C3.92648322 3.07751388 6.36706294 5.77517182 7.25 10.75 C7.57319326 14.83608619 6.5885928 17.35911782 4.3125 20.8125 C1.0872104 24.54174111 -1.01610484 25.68635697 -6 26.0625 C-10.90239866 25.73013399 -14.17090722 24.48598168 -17.5 20.8125 C-19.88639845 16.7933026 -19.99893719 13.40619852 -19.6875 8.8125 C-18.08843249 4.65492447 -16.54061765 2.1002886 -12.6875 -0.1875 C-8.21323668 -1.67892111 -4.36835977 -1.93020548 0 0 Z " fill="#C32B42" transform="translate(308.6875,199.1875)"/>
</svg>
